<svg width="612" height="387.03133" xmlns="http://www.w3.org/2000/svg">
 <g>
  <title>background</title>
  <rect x="-1" y="-1" width="614" height="389.03133" id="canvas_background" fill="none"/>
 </g>

 <g>
  <title>Layer 1</title>
  <g id="f1503154-f50a-4680-8aa4-587be41cac87">
   <rect id="e1abf0e4-070b-4c82-8a12-ebedd4e3db02" x="0.26201" y="0.347" width="611.461" height="391.60699" fill="#e6e6e6"/>
   <rect id="ace8bea0-82e8-49b8-a50c-1e1cb532084f" x="17.61615" y="49.464" width="576.492" height="319.32199" fill="#fff"/>
   <rect id="b540f353-e277-4512-bc56-a133cea2858b" width="611.461" height="25.977" fill="#6c63ff"/>
   <circle id="b2b285b5-c1c3-4b12-9710-2898c7239781" cx="19.30501" cy="13.281" r="4.815" fill="#fff"/>
   <circle id="a5a428bb-42a2-4f57-9e6c-9979c01a2490" cx="37.58001" cy="13.281" r="4.815" fill="#fff"/>
   <circle id="a9929a25-14ce-4464-bac9-4165f1e3fae6" cx="55.85501" cy="13.281" r="4.815" fill="#fff"/>
   <path id="b4a2d72b-abc3-4d2f-a2b8-a2aff6897b26" d="m110.60502,94.22099l-38.133,37.657l38.133,37.656l8.58,-8.58l-28.835,-28.839l29.076,-29.076l-8.821,-8.818z" fill="#6c63ff"/>
   <path id="b5120d89-6cbe-4bfa-9a1b-cf9b07deff91" d="m141.85002,94.22099l38.132,37.657l-38.132,37.656l-8.58,-8.58l28.837,-28.838l-29.078,-29.077l8.821,-8.818z" fill="#6c63ff"/>
   <path id="a31271bd-8e2f-469b-8cee-8b6db3f92f99" d="m265.194,103.67099c-3.119,0 -5.647,1.794 -5.647,4.006s2.528,4.006 5.647,4.006l266.214,0c3.119,0 5.647,-1.794 5.647,-4.006s-2.528,-4.006 -5.647,-4.006l-266.214,0z" fill="#e6e6e6"/>
   <path id="bf577952-0fd5-43e0-be6b-ea1966b51a93" d="m530.76103,323.14999l-447.838,0c-4.578,0 -8.288,-2.643 -8.293,-5.9l0,-79.042c0.005,-3.257 3.715,-5.9 8.293,-5.9l447.838,0c4.578,0 8.288,2.643 8.293,5.9l0,79.041c-0.004,3.25702 -3.715,5.89701 -8.293,5.901zm-447.838,-88.484c-2.747,0 -4.973,1.586 -4.976,3.54l0,79.041c0,1.954 2.229,3.538 4.976,3.54l447.838,0c2.747,0 4.973,-1.586 4.976,-3.54l0,-79.039c0,-1.954 -2.229,-3.538 -4.976,-3.54l-447.838,-0.002z" fill="#e6e6e6"/>
   <circle id="f7f4957b-eaa8-456b-bf02-bacf7de3ef80" cx="128.04001" cy="277.695" r="20.036" fill="#e6e6e6"/>
   <path id="fb0f055d-da6e-47f2-bb6d-7ff26d7b746a" d="m185.55003,261.67099a4.006,4.006 0 0 0 -0.01037,8.012l188.87133,0a4.006,4.006 0 0 0 0,-8.012l-188.86096,0z" fill="#6c63ff"/>
   <path id="bfcde504-8c45-4d21-843b-87b1f7e22ce0" d="m185.55003,285.70801a4.006,4.006 0 0 0 -0.01037,8.012l81.27636,0a4.006,4.006 0 0 0 0.01038,-8.012l-81.27637,0z" fill="#6c63ff"/>
   <path id="a66699ea-75f1-4575-b6d5-52b0b1f8e30c" d="m263.25003,127.67099a4.019,4.019 0 0 0 0,8.012l174.47,0a4.019,4.019 0 0 0 0,-8.012l-174.47,0z" fill="#e6e6e6"/>
   <path id="bbc4ca7b-25d4-4c7e-b3d4-0411f69bd48f" d="m264.39798,151.67099c-2.679,0 -4.851,1.794 -4.851,4.006s2.172,4.006 4.851,4.006l228.7,0c2.679,0 4.851,-1.794 4.851,-4.006s-2.172,-4.006 -4.851,-4.006l-228.7,0z" fill="#e6e6e6"/>
  </g>
 </g>
</svg>